<svg xmlns="http://www.w3.org/2000/svg" width="40" height="30" viewBox="0 0 40 30">
    <g fill="none" fill-rule="evenodd">
        <rect width="40" height="30" fill="#EFF1F4" stroke="#DEE2E7" rx="5"/>
        <path fill="#392EAF" fill-rule="nonzero" d="M26.736 11.544c-.352 0-.65-.125-.896-.376-.245-.25-.368-.547-.368-.888 0-.352.123-.653.368-.904.245-.25.544-.376.896-.376s.65.125.896.376c.245.25.368.55.368.896 0 .347-.123.645-.368.896-.245.25-.544.376-.896.376zm-14.176-.128c-.117 0-.23-.043-.336-.128-.085-.053-.16-.165-.224-.336V9.608c.053-.16.139-.288.256-.384.075-.043.165-.075.272-.096h12.256c-.352.32-.528.701-.528 1.144 0 .443.176.824.528 1.144H12.56zm14.176 3.552c-.352 0-.65-.123-.896-.368-.245-.245-.368-.544-.368-.896s.123-.65.368-.896c.245-.245.544-.368.896-.368s.65.123.896.368c.245.245.368.544.368.896s-.123.65-.368.896c-.245.245-.544.368-.896.368zm-14.176-.112c-.117 0-.227-.04-.328-.12-.101-.08-.179-.2-.232-.36v-1.344c.053-.17.139-.293.256-.368.043-.032.112-.064.208-.096l.064-.016h12.256c-.16.15-.288.323-.384.52-.096.197-.144.408-.144.632 0 .224.048.435.144.632.096.197.224.37.384.52H12.56zm14.176 3.552c-.352 0-.65-.125-.896-.376-.245-.25-.368-.552-.368-.904 0-.341.123-.637.368-.888.245-.25.544-.376.896-.376s.65.125.896.376c.245.25.368.55.368.896 0 .347-.123.645-.368.896-.245.25-.544.376-.896.376zM12.56 18.28c-.117 0-.23-.043-.336-.128-.085-.053-.16-.165-.224-.336v-1.344c.053-.16.139-.288.256-.384.053-.043.144-.075.272-.096h12.256c-.16.139-.288.307-.384.504-.096.197-.144.408-.144.632 0 .224.048.435.144.632.096.197.224.37.384.52H12.56zm14.176 3.552c-.352 0-.65-.125-.896-.376-.245-.25-.368-.547-.368-.888 0-.352.123-.653.368-.904.245-.25.544-.376.896-.376s.65.125.896.376c.245.25.368.55.368.896 0 .347-.123.645-.368.896-.245.25-.544.376-.896.376zm-14.176-.128c-.117 0-.23-.043-.336-.128-.085-.053-.16-.165-.224-.336v-1.344c.053-.16.139-.288.256-.384.075-.043.165-.075.272-.096h12.256c-.352.32-.528.704-.528 1.152 0 .224.048.435.144.632.096.197.224.365.384.504H12.56z"/>
    </g>
</svg>
