<svg xmlns="http://www.w3.org/2000/svg" width="41" height="30" viewBox="0 0 41 30">
    <g fill="none" fill-rule="evenodd" transform="translate(.333)">
        <rect width="40" height="30" fill="#EFF1F4" stroke="#DEE2E7" rx="5"/>
        <path fill="#202236" fill-rule="nonzero" d="M20 24c1.242 0 2.408-.234 3.498-.703 1.09-.469 2.045-1.113 2.865-1.934.82-.82 1.465-1.775 1.934-2.865.469-1.09.703-2.256.703-3.498 0-1.242-.234-2.408-.703-3.498-.469-1.09-1.113-2.045-1.934-2.865-.82-.82-1.775-1.465-2.865-1.934C22.408 6.234 21.242 6 20 6c-1.242 0-2.408.234-3.498.703-1.09.469-2.045 1.113-2.865 1.934-.82.82-1.465 1.775-1.934 2.865C11.234 12.592 11 13.758 11 15c0 1.242.234 2.408.703 3.498.469 1.09 1.113 2.045 1.934 2.865.82.82 1.775 1.465 2.865 1.934 1.09.469 2.256.703 3.498.703zm0-1.055c-1.102 0-2.133-.21-3.094-.633-.96-.421-1.799-.99-2.513-1.705-.715-.714-1.284-1.552-1.706-2.513-.421-.961-.632-1.992-.632-3.094 0-1.102.21-2.133.633-3.094.421-.96.99-1.799 1.705-2.513.714-.715 1.552-1.284 2.513-1.706.961-.421 1.992-.632 3.094-.632 1.102 0 2.133.21 3.094.633.96.421 1.799.99 2.513 1.705.715.714 1.284 1.552 1.706 2.513.421.961.632 1.992.632 3.094 0 1.102-.21 2.133-.633 3.094-.421.96-.99 1.799-1.705 2.513-.714.715-1.552 1.284-2.513 1.706-.961.421-1.992.632-3.094.632zm-.352-10.617c.141 0 .276-.03.405-.088.129-.058.24-.135.334-.228.093-.094.17-.205.228-.334.059-.13.088-.264.088-.405 0-.14-.03-.275-.088-.404-.058-.129-.135-.24-.228-.334-.094-.094-.205-.17-.334-.228-.13-.059-.264-.088-.405-.088-.14 0-.275.029-.404.088-.129.058-.24.134-.334.228-.094.094-.17.205-.228.334-.059.129-.088.264-.088.404 0 .141.029.276.088.405.058.129.134.24.228.334.094.093.205.17.334.228.129.059.264.088.404.088zm1.934 7.84v-1.055h-1.055v-5.765h-2.074v1.054h1.02v4.711h-1.055v1.055h3.164z"/>
    </g>
</svg>
